<svg width="25" height="25" viewBox="0 0 25 25" fill="none" xmlns="http://www.w3.org/2000/svg">
<path d="M12.5 18.0729C13.75 18.0729 14.8003 17.6476 15.651 16.7969C16.5017 15.9462 16.9271 14.8872 16.9271 13.6198C16.9271 12.3698 16.5017 11.3238 15.651 10.4818C14.8003 9.63976 13.75 9.21875 12.5 9.21875C11.2326 9.21875 10.1779 9.63976 9.33592 10.4818C8.4939 11.3238 8.0729 12.3698 8.0729 13.6198C8.0729 14.8872 8.4939 15.9462 9.33592 16.7969C10.1779 17.6476 11.2326 18.0729 12.5 18.0729ZM12.5 16.5104C11.6666 16.5104 10.9809 16.237 10.4427 15.6901C9.90449 15.1432 9.6354 14.4531 9.6354 13.6198C9.6354 12.8038 9.90449 12.1267 10.4427 11.5885C10.9809 11.0503 11.6666 10.7812 12.5 10.7812C13.316 10.7812 13.9974 11.0503 14.5442 11.5885C15.0911 12.1267 15.3646 12.8038 15.3646 13.6198C15.3646 14.4531 15.0911 15.1432 14.5442 15.6901C13.9974 16.237 13.316 16.5104 12.5 16.5104ZM3.64581 21.875C3.22915 21.875 2.86456 21.7187 2.55206 21.4062C2.23956 21.0937 2.08331 20.7292 2.08331 20.3125V6.95312C2.08331 6.55382 2.23956 6.19358 2.55206 5.8724C2.86456 5.55121 3.22915 5.39062 3.64581 5.39062H7.47394L9.37498 3.125H15.625L17.526 5.39062H21.3541C21.7535 5.39062 22.1137 5.55121 22.4349 5.8724C22.7561 6.19358 22.9166 6.55382 22.9166 6.95312V20.3125C22.9166 20.7292 22.7561 21.0937 22.4349 21.4062C22.1137 21.7187 21.7535 21.875 21.3541 21.875H3.64581ZM21.3541 20.3125V6.95312H16.7969L14.8958 4.6875H10.1041L8.2031 6.95312H3.64581V20.3125H21.3541Z" fill="black"/>
</svg>
